<?xml version="1.0" encoding="UTF-8"?>
<svg xmlns="http://www.w3.org/2000/svg" xmlns:xlink="http://www.w3.org/1999/xlink" viewBox="0 0 50 50" version="1.1" fill="#81CDF7"><g id="surface1" fill="#81CDF7"><path style=" " d="M 11.976563 4.042969 C 11.976563 4.042969 9.796875 4.042969 7.367188 5.195313 L 7.367188 5.191406 C 5.507813 6.074219 3.941406 7.363281 3.1875 8.417969 C 2.964844 8.707031 2.917969 9.097656 3.0625 9.429688 C 3.210938 9.765625 3.527344 9.992188 3.894531 10.027344 C 4.257813 10.058594 4.609375 9.886719 4.8125 9.582031 C 5.171875 9.078125 6.710938 7.71875 8.226563 7 C 10.246094 6.042969 11.976563 6.042969 11.976563 6.042969 C 12.335938 6.046875 12.671875 5.859375 12.855469 5.546875 C 13.035156 5.234375 13.035156 4.851563 12.855469 4.539063 C 12.671875 4.226563 12.335938 4.039063 11.976563 4.042969 Z M 31.863281 5 C 29.554688 4.992188 26.777344 5.089844 23.6875 5.488281 C 19.582031 6.015625 15.875 6.832031 12.351563 7.984375 C 6.367188 9.933594 4.382813 12.222656 3.636719 13.082031 L 3.566406 13.164063 C 2.089844 14.855469 3.96875 20.886719 3.984375 20.945313 C 4.429688 22.3125 5.558594 23 6.5625 23 C 6.765625 23 6.960938 22.972656 7.144531 22.917969 C 7.519531 22.804688 8.996094 22.21875 11.203125 21.34375 C 12.289063 20.910156 13.25 20.527344 13.5625 20.414063 C 14.414063 20.101563 15.058594 19.203125 15.28125 18.015625 C 15.390625 17.460938 15.996094 14.925781 16.386719 13.3125 C 17.40625 12.902344 20.234375 11.894531 24.46875 11.347656 C 28.699219 10.800781 31.699219 11.015625 32.789063 11.128906 C 33.90625 13.007813 35.519531 15.722656 35.59375 15.835938 C 36.132813 16.660156 36.84375 17.144531 37.597656 17.203125 C 37.9375 17.230469 39.042969 17.371094 40.265625 17.523438 C 42.515625 17.804688 44.019531 17.988281 44.445313 18 C 45.542969 18.019531 46.886719 16.996094 46.984375 15.289063 C 46.988281 15.226563 47.25 9.046875 45.382813 7.78125 C 45.382813 7.78125 45.199219 7.65625 45.09375 7.589844 C 43.933594 6.832031 40.972656 5.199219 34.015625 5.03125 C 33.351563 5.011719 32.636719 5 31.863281 5 Z M 19 16 C 18.449219 16 18 16.449219 18 17 L 18 19.566406 C 16.988281 20.535156 13.691406 23.75 9.742188 28.347656 C 6.429688 32.203125 5.992188 34.898438 6 37.027344 C 6.007813 38.898438 6.972656 44.902344 7.015625 45.15625 C 7.089844 45.644531 7.507813 46 8 46 L 13 46 C 13.550781 46 14 45.550781 14 45 L 14 44 L 38 44 L 38 45 C 38 45.550781 38.449219 46 39 46 L 44 46 C 44.492188 46 44.910156 45.644531 44.984375 45.15625 C 45.027344 44.902344 45.996094 38.886719 46 37 C 46.003906 34.882813 45.566406 32.195313 42.257813 28.347656 C 38.308594 23.75 35.011719 20.535156 34 19.566406 L 34 17 C 34 16.449219 33.550781 16 33 16 L 30 16 C 29.449219 16 29 16.449219 29 17 L 29 19 L 23 19 L 23 17 C 23 16.449219 22.550781 16 22 16 Z M 37.996094 19.042969 C 37.570313 19.039063 37.1875 19.308594 37.046875 19.707031 C 36.902344 20.109375 37.03125 20.554688 37.359375 20.824219 C 38.234375 21.546875 39.476563 21.910156 40.9375 22 C 42.695313 22.105469 43.515625 21.902344 44.40625 21.5625 C 44.921875 21.359375 45.175781 20.78125 44.976563 20.265625 C 44.777344 19.75 44.199219 19.492188 43.683594 19.691406 C 42.855469 20.011719 42.679688 20.101563 41.0625 20 C 39.898438 19.929688 38.972656 19.5625 38.636719 19.28125 C 38.457031 19.128906 38.230469 19.042969 37.996094 19.042969 Z M 18 25 L 22 25 L 22 27 L 18 27 Z M 24 25 L 28 25 L 28 27 L 24 27 Z M 30 25 L 34 25 L 34 27 L 30 27 Z M 18 29 L 22 29 L 22 31 L 18 31 Z M 24 29 L 28 29 L 28 31 L 24 31 Z M 30 29 L 34 29 L 34 31 L 30 31 Z M 18 33 L 22 33 L 22 35 L 18 35 Z M 24 33 L 28 33 L 28 35 L 24 35 Z M 30 33 L 34 33 L 34 35 L 30 35 Z " fill="#81CDF7"/></g></svg>
